<?xml version="1.0" encoding="UTF-8" standalone="no"?>
<!-- Created with Inkscape (http://www.inkscape.org/) -->

<svg
   width="134.33974mm"
   height="140.10068mm"
   viewBox="0 0 134.33974 140.10067"
   version="1.1"
   id="svg1"
   xmlns:xlink="http://www.w3.org/1999/xlink"
   xmlns="http://www.w3.org/2000/svg"
   xmlns:svg="http://www.w3.org/2000/svg">
  <defs
     id="defs1">
    <linearGradient
       id="linearGradient5">
      <stop
         style="stop-color:#1b6b5c;stop-opacity:1;"
         offset="0"
         id="stop5" />
      <stop
         style="stop-color:#33d2ac;stop-opacity:0.99651569;"
         offset="1"
         id="stop6" />
    </linearGradient>
    <linearGradient
       xlink:href="#linearGradient5"
       id="linearGradient6"
       x1="38.114613"
       y1="118.7664"
       x2="172.45435"
       y2="118.7664"
       gradientUnits="userSpaceOnUse" />
  </defs>
  <g
     id="layer1"
     transform="translate(-38.114612,-48.716064)">
    <path
       style="fill:url(#linearGradient6);stroke:#e60076;stroke-width:0;stroke-linecap:round;stroke-dasharray:none"
       d="m 43.340496,70.890272 c 0,0 41.996607,-22.174208 62.826924,-22.174208 20.83032,0 61.14706,22.174208 61.14706,22.174208 0,0 12.61424,35.429878 -1.67987,67.194568 -22.84615,47.37217 -60.81109,50.7319 -60.81109,50.7319 0,0 -32.925332,-1.00792 -60.139133,-51.06787 -13.952476,-28.7398 -1.343891,-66.858598 -1.343891,-66.858598 z"
       id="path1" />
    <ellipse
       style="fill:#ffffff;fill-rule:evenodd;stroke-width:0.232919"
       id="path2"
       cx="104.94316"
       cy="77.834435"
       rx="11.464086"
       ry="11.905522" />
    <ellipse
       style="fill:#ffffff;fill-rule:evenodd;stroke-width:0.1769"
       id="path2-7"
       cx="117.38829"
       cy="113.91747"
       rx="8.7068996"
       ry="9.0421677" />
    <ellipse
       style="fill:#ffffff;fill-rule:evenodd;stroke-width:0.1769"
       id="path2-7-1"
       cx="93.705765"
       cy="123.81173"
       rx="8.7068996"
       ry="9.0421677" />
    <path
       style="fill:#ffffff;fill-opacity:1;stroke:#e60076;stroke-width:0;stroke-linecap:round;stroke-dasharray:none"
       d="m 94.775272,87.596915 c 0,0 3.813889,4.496012 11.092548,4.190159 7.15324,-0.316447 10.05817,-5.511573 10.05817,-5.511573 17.72049,1.438204 38.84487,10.449346 34.7284,35.413449 -2.18264,11.25915 -20.15868,25.65629 -25.83047,17.78294 -2.62199,-9.75687 13.93104,-6.73754 13.93104,-25.61948 -0.9498,-3.67337 -6.26062,-9.21433 -15.25774,-14.941045 -10.73851,-1.507026 -29.147453,4.391845 -41.627344,11.324185 0,0 -8.905956,5.01834 -8.126439,14.46746 1.534267,11.27701 6.347816,9.95488 12.77012,16.27591 2.32184,3.31546 -1.741381,9.04216 -10.158052,4.82248 -7.54598,-3.61686 -11.77498,-5.9465 -14.772661,-17.07681 -2.596458,-12.12495 0.478012,-27.50868 33.192428,-41.127675 z"
       id="path3" />
    <path
       style="fill:#ffffff;fill-opacity:1;stroke:#e60076;stroke-width:0;stroke-linecap:round;stroke-dasharray:none"
       d="m 105.79225,162.74409 c 0,0 1.47815,-17.62939 -0.0746,-23.27324 -0.70579,-5.20408 -5.50544,-6.3135 -5.50544,-6.3135 0,0 -2.650852,2.10705 -6.603282,2.25364 -3.740692,-0.0733 -6.190349,-2.19747 -6.190349,-2.19747 0,0 -3.604121,1.03568 -3.039488,3.60106 0,0 6.425913,1.87195 4.732014,8.39537 -1.905636,3.95802 -7.232538,4.54155 -7.232538,4.54155 4.164167,11.80079 12.832746,13.35907 23.913673,12.99259 z"
       id="path4" />
    <path
       style="fill:#ffffff;fill-opacity:1;stroke:#e60076;stroke-width:0;stroke-linecap:round;stroke-dasharray:none"
       d="m 130.6145,143.63131 c 0,0 -5.51473,0.30462 -7.52306,-3.56876 -1.70075,-5.4742 2.57949,-8.82091 5.99932,-11.71949 -0.19127,-2.78088 -5.16429,-5.95905 -5.16429,-5.95905 0,0 -1.9127,2.7809 -6.12064,3.3768 -4.59049,-0.49659 -6.69447,-2.185 -6.69447,-2.185 0,0 -6.07459,1.70273 -6.40755,9.63382 2.41036,3.70407 3.44286,6.25702 3.44286,12.61335 0.28691,8.73995 -0.76508,16.88399 -0.76508,16.88399 0,0 7.59936,-0.49595 10.75532,-1.58845 9.32404,-3.91646 13.99633,-8.81926 12.47759,-17.48721 z"
       id="path5" />
  </g>
</svg>
